HIERARCHY
ROOT Hips
{
 OFFSET 0.000000 0.000000 0.000000
 CHANNELS 6 Xposition Yposition Zposition Yrotation Xrotation Zrotation
 JOINT Chest
 {
  OFFSET 0.000000 9.585900 0.002600
  CHANNELS 3 Yrotation Xrotation Zrotation
  JOINT Chest2
  {
   OFFSET 0.000000 9.601200 -0.005300
   CHANNELS 3 Yrotation Xrotation Zrotation
   JOINT Chest3
   {
    OFFSET 0.000000 9.561800 0.000000
    CHANNELS 3 Yrotation Xrotation Zrotation
    JOINT Chest4
    {
     OFFSET 0.000000 9.552100 0.000000
     CHANNELS 3 Yrotation Xrotation Zrotation
     JOINT Neck
     {
      OFFSET 0.000000 14.453000 0.000000
      CHANNELS 3 Yrotation Xrotation Zrotation
      JOINT Head
      {
       OFFSET 0.000000 8.936500 -0.011300
       CHANNELS 3 Yrotation Xrotation Zrotation
       End Site
       {
        OFFSET 0.000000 17.073600 -0.006000
       }
      }
     }
     JOINT RightCollar
     {
      OFFSET -2.921100 9.558500 0.000000
      CHANNELS 3 Yrotation Xrotation Zrotation
      JOINT RightShoulder
      {
       OFFSET -13.519700 0.000000 0.000000
       CHANNELS 3 Yrotation Xrotation Zrotation
       JOINT RightElbow
       {
        OFFSET 0.000000 -29.696600 0.000000
        CHANNELS 3 Yrotation Xrotation Zrotation
        JOINT RightWrist
        {
         OFFSET 0.000000 -24.004700 0.000000
         CHANNELS 3 Yrotation Xrotation Zrotation
         End Site
         {
          OFFSET 0.000000 -17.728500 0.000000
         }
        }
       }
      }
     }
     JOINT LeftCollar
     {
      OFFSET 2.921100 9.558500 0.000000
      CHANNELS 3 Yrotation Xrotation Zrotation
      JOINT LeftShoulder
      {
       OFFSET 13.519700 0.000000 0.000000
       CHANNELS 3 Yrotation Xrotation Zrotation
       JOINT LeftElbow
       {
        OFFSET 0.000000 -29.696600 0.000000
        CHANNELS 3 Yrotation Xrotation Zrotation
        JOINT LeftWrist
        {
         OFFSET 0.000000 -24.004700 0.000000
         CHANNELS 3 Yrotation Xrotation Zrotation
         End Site
         {
          OFFSET 0.000000 -17.728500 0.000000
         }
        }
       }
      }
     }
    }
   }
  }
 }
 JOINT RightHip
 {
  OFFSET -7.771700 -0.012900 -0.001300
  CHANNELS 3 Yrotation Xrotation Zrotation
  JOINT RightKnee
  {
   OFFSET 0.000000 -40.869800 0.001200
   CHANNELS 3 Yrotation Xrotation Zrotation
   JOINT RightAnkle
   {
    OFFSET 0.000000 -39.717900 0.002100
    CHANNELS 3 Yrotation Xrotation Zrotation
    JOINT RightToe
    {
     OFFSET 0.000000 -4.965400 11.033500
     CHANNELS 3 Yrotation Xrotation Zrotation
     End Site
     {
      OFFSET 0.000000 -1.423100 5.872300
     }
    }
   }
  }
 }
 JOINT LeftHip
 {
  OFFSET 7.771700 -0.012900 -0.001300
  CHANNELS 3 Yrotation Xrotation Zrotation
  JOINT LeftKnee
  {
   OFFSET 0.000000 -40.869800 0.001200
   CHANNELS 3 Yrotation Xrotation Zrotation
   JOINT LeftAnkle
   {
    OFFSET 0.000000 -39.717900 0.002100
    CHANNELS 3 Yrotation Xrotation Zrotation
    JOINT LeftToe
    {
     OFFSET 0.000000 -4.965400 11.033500
     CHANNELS 3 Yrotation Xrotation Zrotation
     End Site
     {
      OFFSET 0.000000 -1.423100 5.872300
     }
    }
   }
  }
 }
}
MOTION
Frames: 9
Frame Time: 0.008333
-248.651460 57.186457 149.238250 176.717861 -33.140695 -1.438499 2.336811 19.283983 3.350873 0.176640 2.314329 0.350295 0.298520 3.809699 0.581004 1.625446 16.583501 2.743346 -4.705175 11.968708 -3.269543 -7.689780 -13.576032 -4.182202 2.696889 -2.959935 -1.613126 6.297935 -20.522740 -21.146488 172.483100 -39.157840 -156.706477 19.953953 -12.265169 -53.956700 -7.405502 -6.183870 -4.065727 -1.163312 -11.930605 1.358899 -69.148563 -47.734345 28.071230 -16.316614 -12.418998 35.090078 10.636356 -42.430886 -6.279063 -6.362281 66.027456 -8.072968 3.424348 26.338926 4.765173 -1.170922 -16.587281 6.706636 -9.174494 -41.001768 4.302661 28.902585 67.675227 27.341893 -13.766142 7.183472 -3.410963 0.258767 0.326012 0.125648
-248.656427 57.188275 149.236157 176.736945 -33.140531 -1.433150 2.344893 19.277829 3.333691 0.178951 2.312848 0.349574 0.333355 3.801515 0.563880 1.616349 16.582781 2.760048 -4.772479 11.900133 -3.270876 -7.813170 -13.709707 -4.149622 2.747485 -2.998352 -1.629681 6.439709 -20.576766 -21.285925 172.501286 -39.213879 -156.697599 19.956622 -12.266365 -53.967059 -7.387465 -6.186056 -4.065559 -1.129824 -11.900782 1.304283 -69.052219 -47.719075 28.023267 -16.304599 -12.440603 35.155049 10.613307 -42.426209 -6.285724 -6.392385 66.026444 -8.126579 3.435011 26.329227 4.775492 -1.168191 -16.580986 6.706184 -9.172288 -41.002525 4.290362 28.893135 67.678628 27.319047 -13.760234 7.190768 -3.392171 0.249863 0.321382 0.119630
-248.657295 57.189952 149.234832 176.766988 -33.134009 -1.459811 2.352030 19.266696 3.340816 0.181107 2.311818 0.348685 0.333296 3.799355 0.564717 1.661884 16.573559 2.736450 -4.841630 11.875981 -3.226812 -7.945838 -13.881982 -4.125665 2.748847 -3.029029 -1.606952 6.591745 -20.627075 -21.424980 172.506677 -39.274465 -156.679313 19.958772 -12.267076 -53.970993 -7.408552 -6.177280 -4.032844 -1.082331 -11.877815 1.244511 -68.977015 -47.700460 27.988542 -16.294069 -12.459037 35.221272 10.559375 -42.428809 -6.255811 -6.447309 66.018483 -8.206308 3.462404 26.321655 4.799238 -1.171163 -16.575804 6.699122 -9.194669 -41.010884 4.330318 28.825089 67.699090 27.245907 -13.794327 7.199812 -3.403399 0.283613 0.311520 0.133764
-248.661145 57.192157 149.232397 176.785761 -33.132319 -1.463120 2.381199 19.254310 3.330549 0.162542 2.315712 0.356292 0.332517 3.796404 0.563792 1.681102 16.568094 2.724329 -4.887474 11.849303 -3.204012 -8.072989 -14.052043 -4.103892 2.775767 -3.056517 -1.604471 6.726614 -20.669315 -21.553899 172.516050 -39.339471 -156.659011 19.958406 -12.261478 -53.968816 -7.398671 -6.169193 -4.021348 -1.035213 -11.855200 1.188139 -68.918025 -47.685187 27.964683 -16.287210 -12.475680 35.284399 10.534664 -42.423384 -6.254746 -6.472053 66.011109 -8.247970 3.460653 26.318961 4.808197 -1.159997 -16.572471 6.693730 -9.197666 -41.017014 4.336087 28.812179 67.714952 27.211617 -13.781635 7.211281 -3.376773 0.269754 0.300403 0.129868
-248.667715 57.193570 149.230864 176.845740 -33.121000 -1.473527 2.344290 19.238179 3.305292 0.164387 2.316176 0.354388 0.327965 3.794779 0.565737 1.693258 16.561589 2.714281 -4.941372 11.782823 -3.206456 -8.175161 -14.180270 -4.079047 2.810389 -3.078333 -1.612126 6.842904 -20.708898 -21.671367 172.539057 -39.412075 -156.642117 19.955838 -12.251905 -53.965525 -7.401186 -6.156944 -4.007318 -0.959527 -11.834866 1.126711 -68.871802 -47.677625 27.950894 -16.287147 -12.494788 35.335653 10.492965 -42.420031 -6.278615 -6.497355 66.000198 -8.290739 3.444204 26.304008 4.796346 -1.139927 -16.555545 6.705546 -9.222717 -41.034374 4.323336 28.830911 67.724675 27.202380 -13.750954 7.250676 -3.322562 0.221559 0.262796 0.108460
-248.670176 57.195058 149.229487 176.858974 -33.111315 -1.482834 2.349826 19.223233 3.306312 0.186197 2.307071 0.344413 0.297395 3.805588 0.580527 1.713048 16.549846 2.696789 -5.017397 11.652754 -3.229579 -8.245195 -14.242011 -4.050985 2.840850 -3.095095 -1.620332 6.937329 -20.750274 -21.774623 172.580037 -39.494464 -156.631757 19.952914 -12.245111 -53.960763 -7.402079 -6.142091 -3.993698 -0.884881 -11.811125 1.068428 -68.921597 -47.658472 27.975355 -16.240881 -12.495738 35.402012 10.480481 -42.425932 -6.278970 -6.511171 65.995147 -8.309128 3.436037 26.307324 4.801101 -1.129236 -16.556628 6.701600 -9.227762 -41.045989 4.338282 28.799337 67.736229 27.169711 -13.760954 7.257426 -3.322944 0.230431 0.254499 0.112490
-248.673606 57.196720 149.227479 176.880443 -33.105616 -1.489621 2.335426 19.216417 3.300593 0.186393 2.306649 0.344145 0.314610 3.797416 0.571022 1.706451 16.552132 2.700467 -5.065568 11.556469 -3.253270 -8.327211 -14.344134 -4.029396 2.877984 -3.114850 -1.643473 7.013335 -20.792581 -21.860825 172.633389 -39.583558 -156.622566 19.951334 -12.237626 -53.953653 -7.357552 -6.132266 -4.005245 -0.870627 -11.790958 1.037171 -68.937327 -47.650403 27.985720 -16.206509 -12.497118 35.459845 10.469020 -42.423626 -6.292895 -6.516451 65.989060 -8.315791 3.440759 26.305727 4.805214 -1.129382 -16.555102 6.702992 -9.229981 -41.054165 4.343244 28.782111 67.746262 27.141467 -13.766744 7.262445 -3.305816 0.231469 0.250068 0.109130
-248.677774 57.198553 149.224825 176.912732 -33.104316 -1.495651 2.324870 19.208709 3.284139 0.187340 2.305080 0.343060 0.316125 3.794995 0.569355 1.701587 16.554620 2.706126 -5.089784 11.522218 -3.254491 -8.426507 -14.509991 -4.018614 2.899354 -3.125973 -1.657633 7.089519 -20.836675 -21.940854 172.691742 -39.672140 -156.612259 19.950236 -12.223743 -53.942768 -7.317545 -6.123249 -4.013978 -0.831662 -11.759097 0.992494 -68.817868 -47.679167 27.982014 -16.282847 -12.542165 35.425114 10.478253 -42.415515 -6.320156 -6.537853 65.988729 -8.338704 3.442838 26.303603 4.829137 -1.126771 -16.558057 6.699202 -9.232381 -41.058525 4.336130 28.765843 67.755444 27.115051 -13.770817 7.265729 -3.286138 0.226733 0.246114 0.106559
-248.681667 57.199827 149.222652 176.938368 -33.100316 -1.496741 2.317106 19.198170 3.265548 0.187850 2.302586 0.341652 0.335516 3.777644 0.553517 1.689840 16.560788 2.713572 -5.115436 11.500104 -3.240938 -8.519876 -14.679476 -4.009400 2.892643 -3.114391 -1.636203 7.178671 -20.881406 -22.029182 172.747772 -39.754204 -156.601457 19.942047 -12.207946 -53.926499 -7.289627 -6.102989 -4.010559 -0.762833 -11.718184 0.939345 -68.835420 -47.691483 28.021455 -16.307239 -12.557904 35.417959 10.480591 -42.413345 -6.342442 -6.541494 65.990557 -8.347850 3.434153 26.302089 4.840033 -1.120849 -16.560009 6.698904 -9.231628 -41.064725 4.326072 28.766740 67.759271 27.104498 -13.774615 7.267722 -3.264678 0.217174 0.244322 0.101504
